<svg width="1280" height="720" xmlns="http://www.w3.org/2000/svg" xmlns:xlink="http://www.w3.org/1999/xlink" overflow="hidden"><defs><clipPath id="clip0"><path d="M1152.81 129.504 1238.29 173.187 1194.61 258.673 1109.12 214.99Z" fill-rule="evenodd" clip-rule="evenodd"/></clipPath><clipPath id="clip1"><path d="M1152.81 129.504 1238.29 173.187 1194.61 258.673 1109.12 214.99Z" fill-rule="evenodd" clip-rule="evenodd"/></clipPath><clipPath id="clip2"><path d="M1152.81 129.504 1238.29 173.187 1194.61 258.673 1109.12 214.99Z" fill-rule="evenodd" clip-rule="evenodd"/></clipPath></defs><g><rect x="0" y="0" width="1280" height="720" fill="#FFFFFF"/><path d="M0 720 0 0 692 720Z" fill="#EEB9F0" fill-rule="evenodd"/><path d="M1280 0 1280 720 588 0Z" fill="#EEB9F0" fill-rule="evenodd"/><path d="M0 720 0 0 692 720Z" fill="#D8C8F0" fill-rule="evenodd"/><path d="M1280 0 1280 720 588 0Z" fill="#D8C8F0" fill-rule="evenodd"/><g><g><g><path d="M209.75 542.59C216.561 540.354 224.021 541.356 230 545.31 235.979 541.356 243.439 540.354 250.25 542.59 250.409 541.598 250.493 540.595 250.5 539.59 250.5 528.268 241.322 519.09 230 519.09 218.678 519.09 209.5 528.268 209.5 539.59 209.507 540.595 209.591 541.598 209.75 542.59Z" fill="#7422DD" fill-opacity="0.75"/><path d="M252.38 546.74C250.399 552.875 245.994 557.933 240.19 560.74 240.435 562.113 240.559 563.505 240.56 564.9 240.561 571.658 237.645 578.088 232.56 582.54 235.699 584.412 239.285 585.4 242.94 585.4 254.256 585.404 263.434 576.234 263.438 564.918 263.441 557.263 259.176 550.244 252.38 546.72Z" fill="#7422DD" fill-opacity="0.75"/><path d="M236.67 559C235.489 555.078 233.167 551.597 230 549 226.833 551.597 224.511 555.078 223.33 559 227.649 560.507 232.351 560.507 236.67 559Z" fill="#7422DD" fill-opacity="0.75"/><path d="M217.06 585.42C220.715 585.42 224.301 584.432 227.44 582.56 222.355 578.108 219.439 571.678 219.44 564.92 219.441 563.525 219.565 562.133 219.81 560.76 214.006 557.953 209.601 552.895 207.62 546.76 197.574 551.969 193.653 564.336 198.862 574.382 202.386 581.178 209.405 585.443 217.06 585.44Z" fill="#7422DD" fill-opacity="0.75"/><path d="M230 580.8C234.784 576.916 237.561 571.082 237.56 564.92 237.551 563.916 237.471 562.913 237.32 561.92 232.565 563.48 227.435 563.48 222.68 561.92 222.529 562.913 222.449 563.916 222.44 564.92 222.439 571.082 225.216 576.916 230 580.8Z" fill="#7422DD" fill-opacity="0.75"/><path d="M249.61 545.55C243.966 543.594 237.748 544.224 232.61 547.27 235.81 550.08 238.188 553.705 239.49 557.76 244.358 555.204 248.002 550.808 249.61 545.55Z" fill="#7422DD" fill-opacity="0.75"/><path d="M217.06 544.42C214.79 544.425 212.535 544.807 210.39 545.55 212.01 550.817 215.673 555.215 220.56 557.76 221.862 553.705 224.24 550.08 227.44 547.27 224.298 545.406 220.713 544.421 217.06 544.42Z" fill="#7422DD" fill-opacity="0.75"/></g></g></g><g><g><g><path d="M123.5 483.6 111 471.1C109.3 469.4 107 468.8 104.8 469.2L100.4 464.8C104.3 459.8 106.6 453.4 106.6 446.6 106.6 430.1 93.1 416.6 76.6 416.6 60.1 416.6 46.6 430.1 46.6 446.6 46.6 463.1 60.1 476.6 76.6 476.6 83.4 476.6 89.7 474.3 94.8 470.4L99.2 474.8C98.8 477 99.4 479.3 101.1 481L113.6 493.5C115 494.9 116.8 495.6 118.6 495.6 120.4 495.6 122.2 494.9 123.6 493.5 126.2 490.7 126.2 486.3 123.5 483.6ZM76.5 470.5C63.3 470.5 52.5 459.7 52.5 446.5 52.5 433.3 63.3 422.5 76.5 422.5 89.7 422.5 100.5 433.3 100.5 446.5 100.5 459.7 89.7 470.5 76.5 470.5Z" fill="#7422DD" fill-opacity="0.75"/></g></g></g><g><g><g><path d="M265.5 408.1C263.9 406.5 261.5 405.7 259.3 406.2L254.8 401.8C258.8 396.6 261 390.2 261 383.6 261.1 366.9 247.6 353.4 231 353.3 214.4 353.2 200.9 366.7 200.8 383.3 200.7 399.9 214.2 413.4 230.8 413.5 237.4 413.5 243.9 411.3 249.2 407.3L253.6 411.7C253.2 414 253.9 416.3 255.5 418L268 430.5C270.7 433.2 275.2 433.2 277.9 430.5 280.6 427.8 280.6 423.3 277.9 420.6L265.5 408.1ZM231 407.5C217.7 407.5 207 396.8 207 383.5 207 370.2 217.7 359.5 231 359.5 244.3 359.5 255 370.2 255 383.5 255 396.7 244.2 407.5 231 407.5Z" fill="#7422DD" fill-opacity="0.74902"/><path d="M252.5 382 246.8 382C246.3 382.1 245.8 382.4 245.5 382.8L241.7 386.9 238.5 375.8C238.2 374.9 237.2 374.3 236.3 374.6 235.8 374.8 235.3 375.1 235.1 375.7L229.1 391.6 225 369.6C224.8 368.6 223.9 368 223 368.2 222.4 368.3 221.9 368.8 221.6 369.4L217.3 382 209.5 382 209.5 386 218.6 386C219.4 385.9 220.1 385.3 220.3 384.5L222.8 376.9 226.8 398.4C226.9 399.2 227.6 399.8 228.4 399.8L228.6 399.8C229.3 399.8 230 399.4 230.3 398.7L236.7 381.9 239.3 390.9C239.6 391.8 240.5 392.4 241.5 392.1 241.8 392 242.1 391.8 242.3 391.6L247.7 386 252.6 386 252.6 382Z" fill="#7422DD" fill-opacity="0.74902"/></g></g></g><g><g><g><path d="M375.9 505.4C383.7 497.9 384.1 485.5 376.7 477.5 384.6 481.6 391.1 487.9 394.9 492.1 390.9 496 384.1 501.8 375.9 505.4ZM336.6 484.8C339.9 482 343.4 479.6 347.2 477.6 339.9 485.6 340.3 497.9 348.1 505.4 339.9 501.8 333 496 329.1 492.1 331.4 489.5 333.9 487.1 336.6 484.8L336.6 484.8ZM362 507C353.2 507 346 499.8 346 491 346 482.2 353.2 475 362 475 370.8 475 378 482.2 378 491 378 499.8 370.8 507 362 507ZM400.9 489.3C395.1 482.5 379.9 467 362 467 344.1 467 328.9 482.5 323.1 489.3 321.6 491.1 321.7 493.6 323.3 495.3 329.2 501.5 344.3 515 362 515 379.7 515 394.8 501.5 400.8 495.3 402.3 493.7 402.4 491.1 400.9 489.3Z" fill="#7422DD" fill-opacity="0.75"/><path d="M372 491C372 496.523 367.523 501 362 501 356.477 501 352 496.523 352 491 352 485.477 356.477 481 362 481 367.523 481 372 485.477 372 491Z" fill="#7422DD" fill-opacity="0.75"/></g></g></g><g><g><g><path d="M70 327C65.5817 327 62 323.418 62 319 62 314.582 65.5817 311 70 311 74.4183 311 78 314.582 78 319 78 323.418 74.4183 327 70 327ZM70 315C67.7909 315 66 316.791 66 319 66 321.209 67.7909 323 70 323 72.2091 323 74 321.209 74 319 74 316.791 72.2091 315 70 315Z" fill="#7422DD" fill-opacity="0.75"/><path d="M105 317C103.951 299.227 89.773 285.049 72 284L72 278 68 278 68 284C50.227 285.049 36.0486 299.227 35 317L29 317 29 321 35 321C36.0486 338.773 50.227 352.951 68 354L68 360 72 360 72 354C89.773 352.951 103.951 338.773 105 321L111 321 111 317ZM90.16 321C89.1991 330.603 81.6034 338.199 72 339.16L72 331 68 331 68 339.16C58.3966 338.199 50.801 330.603 49.84 321L58 321 58 317 49.84 317C50.801 307.397 58.3966 299.801 68 298.84L68 307 72 307 72 298.84C81.6034 299.801 89.199 307.397 90.16 317L82 317 82 321ZM68 290 68 294.83C56.1894 295.822 46.8173 305.19 45.82 317L41 317C42.0284 302.536 53.5357 291.028 68 290ZM41 321 45.83 321C46.822 332.811 56.1898 342.183 68 343.18L68 348C53.5357 346.972 42.0284 335.464 41 321ZM72 348 72 343.18C83.8141 342.187 93.1873 332.814 94.18 321L99 321C97.9716 335.464 86.4643 346.972 72 348ZM94.18 317C93.1873 305.186 83.8141 295.813 72 294.82L72 290C86.4643 291.028 97.9716 302.536 99 317Z" fill="#7422DD" fill-opacity="0.75"/></g></g></g><g><g><g><path d="M37 170C37 173.314 34.3137 176 31 176 27.6863 176 25 173.314 25 170 25 166.686 27.6863 164 31 164 34.3137 164 37 166.686 37 170Z" fill="#7422DD" fill-opacity="0.75"/><path d="M37 186C37 189.314 34.3137 192 31 192 27.6863 192 25 189.314 25 186 25 182.686 27.6863 180 31 180 34.3137 180 37 182.686 37 186Z" fill="#7422DD" fill-opacity="0.75"/><path d="M37 202C37 205.314 34.3137 208 31 208 27.6863 208 25 205.314 25 202 25 198.686 27.6863 196 31 196 34.3137 196 37 198.686 37 202Z" fill="#7422DD" fill-opacity="0.75"/><path d="M49 186C49 187.105 48.1046 188 47 188 45.8954 188 45 187.105 45 186 45 184.895 45.8954 184 47 184 48.1046 184 49 184.895 49 186Z" fill="#7422DD" fill-opacity="0.75"/><path d="M49 202C49 203.105 48.1046 204 47 204 45.8954 204 45 203.105 45 202 45 200.895 45.8954 200 47 200 48.1046 200 49 200.895 49 202Z" fill="#7422DD" fill-opacity="0.75"/><path d="M53 170C53 173.314 50.3137 176 47 176 43.6863 176 41 173.314 41 170 41 166.686 43.6863 164 47 164 50.3137 164 53 166.686 53 170Z" fill="#7422DD" fill-opacity="0.75"/><path d="M71 170C71 171.105 70.1046 172 69 172 67.8954 172 67 171.105 67 170 67 168.895 67.8954 168 69 168 70.1046 168 71 168.895 71 170Z" fill="#7422DD" fill-opacity="0.75"/><path d="M75 186C75 189.314 72.3137 192 69 192 65.6863 192 63 189.314 63 186 63 182.686 65.6863 180 69 180 72.3137 180 75 182.686 75 186Z" fill="#7422DD" fill-opacity="0.75"/><path d="M75 202C75 205.314 72.3137 208 69 208 65.6863 208 63 205.314 63 202 63 198.686 65.6863 196 69 196 72.3137 196 75 198.686 75 202Z" fill="#7422DD" fill-opacity="0.75"/><path d="M87 186C87 187.105 86.1046 188 85 188 83.8954 188 83 187.105 83 186 83 184.895 83.8954 184 85 184 86.1046 184 87 184.895 87 186Z" fill="#7422DD" fill-opacity="0.75"/><path d="M87 202C87 203.105 86.1046 204 85 204 83.8954 204 83 203.105 83 202 83 200.895 83.8954 200 85 200 86.1046 200 87 200.895 87 202Z" fill="#7422DD" fill-opacity="0.75"/><path d="M91 170C91 173.314 88.3137 176 85 176 81.6863 176 79 173.314 79 170 79 166.686 81.6863 164 85 164 88.3137 164 91 166.686 91 170Z" fill="#7422DD" fill-opacity="0.75"/></g></g></g><g clip-path="url(#clip0)"><g clip-path="url(#clip1)"><g clip-path="url(#clip2)"><path d="M1135.43 194.066C1135.35 192.456 1133.89 191.146 1132.28 191.221 1130.67 191.297 1129.36 192.761 1129.43 194.372L1130.04 206.363C1130.12 207.973 1131.58 209.283 1133.19 209.208 1134.8 209.133 1136.11 207.668 1136.04 206.058L1135.43 194.066Z" fill="#7422DD" fill-opacity="0.75"/><path d="M1171.74 219.474 1157.55 216.711 1156.24 212.004 1174.73 215.609 1171.74 219.474ZM1204.8 218.959 1204.11 205.58 1203.19 187.594 1202.51 174.215C1202.38 172.917 1201.14 172.057 1199.93 172.449L1139.3 190.88 1140.22 208.867 1151.82 211.205 1153.86 218.423C1154.21 219.499 1155.01 220.356 1156.12 220.59L1171.53 223.631C1171.75 223.633 1172.06 223.681 1172.29 223.683 1173.09 223.645 1173.99 223.206 1174.44 222.539L1179.06 216.586 1202.41 221.219C1203.7 221.319 1204.92 220.257 1204.8 218.959Z" fill="#7422DD" fill-opacity="0.75"/></g></g></g><g><g><g><path d="M1052.4 215.4 1049.6 212.6 1068.6 193.6 1071.4 196.4 1052.4 215.4ZM1042.6 205.6 1061.6 186.6 1064.4 189.4 1045.4 208.4 1042.6 205.6ZM1035.6 198.6 1054.6 179.6 1057.4 182.4 1038.4 201.4 1035.6 198.6ZM1030 178C1027.8 178 1026 176.2 1026 174 1026 171.8 1027.8 170 1030 170 1032.2 170 1034 171.8 1034 174 1034 176.2 1032.2 178 1030 178ZM1079.2 195.2 1051.2 167.2C1050.4 166.4 1049.4 166 1048.4 166L1030 166C1025.6 166 1022 169.6 1022 174L1022 192.3C1022 193.4 1022.4 194.4 1023.2 195.1L1051.2 223.1C1052.8 224.7 1055.3 224.7 1056.9 223.1L1079.2 200.8C1080.7 199.3 1080.7 196.7 1079.2 195.2Z" fill="#7422DD" fill-opacity="0.75"/></g></g></g><g><g><g><path d="M874.39 53.7C872.652 49.6081 867.925 47.7002 863.833 49.4386 860.504 50.853 858.527 54.314 859 57.9L848.26 62.39C846.391 59.0975 843.128 56.8316 839.39 56.23L839.39 44.7C843.668 43.5954 846.24 39.232 845.136 34.954 844.031 30.6761 839.668 28.1035 835.39 29.2081 831.112 30.3126 828.539 34.6761 829.644 38.954 830.372 41.7719 832.572 43.9724 835.39 44.7L835.39 56.22C831.684 56.8199 828.444 59.0566 826.57 62.31L815.79 57.8C816.635 53.2666 813.646 48.9061 809.112 48.0606 804.579 47.2151 800.219 50.2048 799.373 54.7382 798.528 59.2716 801.517 63.632 806.051 64.4775 809.074 65.0415 812.163 63.8974 814.09 61.5L825.14 66C824.415 69.5003 825.231 73.1433 827.38 76L818.79 84.7C814.99 82.4462 810.082 83.6998 807.828 87.5 805.574 91.3002 806.828 96.2079 810.628 98.4618 814.429 100.716 819.336 99.462 821.59 95.6618 823.082 93.1458 823.082 90.016 821.59 87.5L830.27 78.82C834.551 81.7938 840.229 81.7938 844.51 78.82L853.19 87.5C851.355 90.6677 851.845 94.6687 854.39 97.3 857.494 100.444 862.559 100.477 865.703 97.3726 868.848 94.2686 868.88 89.2034 865.776 86.0592 863.194 83.4433 859.161 82.9239 856 84.8L847.36 76.07C849.002 73.907 849.891 71.2657 849.89 68.55 849.891 67.734 849.811 66.9199 849.65 66.12L860.65 61.6C862.832 64.4972 866.69 65.5643 870.05 64.2 874.108 62.4593 876.035 57.7978 874.39 53.7ZM837.45 61C839.383 61 840.95 62.567 840.95 64.5 840.95 66.433 839.383 68 837.45 68 835.517 68 833.95 66.433 833.95 64.5 833.95 62.567 835.517 61 837.45 61ZM844.45 75 830.45 75 830.45 72.28C830.463 71.7324 830.72 71.2192 831.15 70.88 832.188 70.1346 833.344 69.57 834.57 69.21 835.51 68.9401 836.482 68.7955 837.46 68.78 838.439 68.7829 839.412 68.9278 840.35 69.21 841.59 69.5321 842.753 70.1 843.77 70.88 844.2 71.2192 844.457 71.7324 844.47 72.28Z" fill="#7422DD" fill-opacity="0.75"/></g></g></g><g><g><g><path d="M912.72 243.53C912.72 247.827 909.237 251.31 904.94 251.31 900.643 251.31 897.16 247.827 897.16 243.53 897.16 239.233 900.643 235.75 904.94 235.75 909.237 235.75 912.72 239.233 912.72 243.53Z" fill="#7422DD" fill-opacity="0.75"/><path d="M954.21 243.53C954.21 247.827 950.727 251.31 946.43 251.31 942.133 251.31 938.65 247.827 938.65 243.53 938.65 239.233 942.133 235.75 946.43 235.75 950.727 235.75 954.21 239.233 954.21 243.53Z" fill="#7422DD" fill-opacity="0.75"/><path d="M889.38 261.17 889.38 269 906.63 269 906.63 267.22C906.601 264.907 907.688 262.722 909.55 261.35 911.919 259.49 914.641 258.13 917.55 257.35L917.19 256.94C915.37 255.819 913.396 254.97 911.33 254.42 909.266 253.753 907.109 253.416 904.94 253.42 902.773 253.477 900.621 253.813 898.54 254.42 895.771 255.065 893.174 256.303 890.93 258.05 889.931 258.771 889.351 259.938 889.38 261.17Z" fill="#7422DD" fill-opacity="0.75"/><path d="M944.71 269 962 269 962 261.17C961.985 259.946 961.41 258.797 960.44 258.05 958.138 256.399 955.561 255.17 952.83 254.42 950.763 253.749 948.603 253.412 946.43 253.42 944.266 253.477 942.118 253.814 940.04 254.42 938.047 254.909 936.135 255.68 934.36 256.71 934.18 256.93 933.99 257.15 933.79 257.36 936.602 258.238 939.258 259.554 941.66 261.26L941.79 261.35 941.9 261.45C943.671 262.841 944.707 264.968 944.71 267.22Z" fill="#7422DD" fill-opacity="0.75"/><path d="M910.12 275 910.12 267.22C910.088 265.988 910.673 264.821 911.68 264.11 913.922 262.359 916.519 261.121 919.29 260.48 921.37 259.868 923.522 259.532 925.69 259.48 927.86 259.471 930.017 259.809 932.08 260.48 934.815 261.222 937.393 262.452 939.69 264.11 940.669 264.844 941.247 265.996 941.25 267.22L941.25 275Z" fill="#7422DD" fill-opacity="0.75"/><path d="M933.47 249.58C933.47 253.877 929.987 257.36 925.69 257.36 921.393 257.36 917.91 253.877 917.91 249.58 917.91 245.283 921.393 241.8 925.69 241.8 929.987 241.8 933.47 245.283 933.47 249.58Z" fill="#7422DD" fill-opacity="0.75"/><path d="M889.19 199 889.19 221C889.19 223.209 890.981 225 893.19 225L909.19 225 909.19 231 915.49 225 922.59 225 926.19 231 930.09 225 936.89 225 943.19 231 943.19 225 957.94 225C960.149 225 961.94 223.209 961.94 221L961.94 199C961.94 196.791 960.149 195 957.94 195L893.19 195C890.981 195 889.19 196.791 889.19 199ZM951.94 206 905.19 206 905.19 204 951.94 204ZM915.19 214 951.94 214 951.94 216 915.19 216ZM899.19 209 951.94 209 951.94 211 899.19 211Z" fill="#7422DD" fill-opacity="0.75"/></g></g></g><g><g><g><path d="M1081 354 1081 362 1073 362 1073 354 1081 354ZM1025 390 1033 390 1033 398 1025 398 1025 390ZM1045 354 1045 362 1037 362 1037 354 1045 354ZM1057 354 1057 362 1049 362 1049 354 1057 354ZM1069 374 1061 374 1061 366 1069 366 1069 374ZM1073 374 1073 366 1081 366 1081 374 1073 374ZM1073 386 1073 378 1081 378 1081 386 1073 386ZM1049 390 1057 390 1057 398 1049 398 1049 390ZM1045 390 1045 398 1037 398 1037 390 1045 390ZM1037 378 1045 378 1045 386 1037 386 1037 378ZM1033 378 1033 386 1025 386 1025 378 1033 378ZM1033 366 1033 374 1025 374 1025 366 1033 366ZM1045 374 1037 374 1037 366 1045 366 1045 374ZM1049 374 1049 366 1057 366 1057 374 1049 374ZM1057 386 1049 386 1049 378 1057 378 1057 386ZM1061 386 1061 378 1069 378 1069 386 1061 386ZM1069 354 1069 362 1061 362 1061 354 1069 354ZM1019 348 1019 404 1087 404 1087 348 1019 348Z" fill="#7422DD" fill-opacity="0.75"/><path d="M1019 336 1087 336 1087 344 1019 344Z" fill="#7422DD" fill-opacity="0.75"/></g></g></g><g><g><g><path d="M1226 512.95 1236.1 502.85 1242 508.75 1242 492.75 1226 492.75 1231.9 498.65 1222 508.55 1205 525.55 1190 510.55 1158.9 541.65 1163.1 545.85 1190 518.95 1205 533.95 1226 512.95Z" fill="#7422DD" fill-opacity="0.75"/><path d="M1175 481C1175 483.761 1172.76 486 1170 486 1167.24 486 1165 483.761 1165 481 1165 478.239 1167.24 476 1170 476 1172.76 476 1175 478.239 1175 481Z" fill="#7422DD" fill-opacity="0.75"/><path d="M1218.17 506.71 1219.17 505.71 1221.46 503.42 1218.68 490.92C1218.59 490.477 1218.35 490.08 1218 489.8 1216.8 488.86 1215.45 488.139 1214 487.67 1211.39 486.777 1208.55 486.777 1205.94 487.67 1204.49 488.14 1203.14 488.861 1201.94 489.8 1201.59 490.086 1201.35 490.481 1201.26 490.92L1200 496.78 1200 496.78 1198.69 490.92C1198.6 490.477 1198.35 490.081 1198 489.8 1196.8 488.86 1195.45 488.139 1194 487.67 1189.89 486.345 1185.4 487.143 1182 489.8 1181.65 490.086 1181.41 490.481 1181.32 490.92L1180 496.59C1180 496.59 1180 496.59 1180 496.59L1178.7 490.92C1178.6 490.478 1178.35 490.083 1178 489.8 1176.8 488.861 1175.45 488.14 1174 487.67 1171.39 486.777 1168.55 486.777 1165.94 487.67 1164.49 488.142 1163.14 488.863 1161.94 489.8 1161.59 490.086 1161.35 490.481 1161.26 490.92L1158.08 505.44C1157.8 506.559 1158.47 507.696 1159.59 507.981 1159.62 507.988 1159.64 507.994 1159.67 508 1159.78 508.01 1159.89 508.01 1160 508 1160.96 508.022 1161.79 507.364 1162 506.43L1165 493 1165 493 1165 500.1 1162 515 1165 515 1165 529.89 1169 525.89 1169 515 1171 515 1171 523.89 1175 519.89 1175 515 1178 515 1175 500.11 1175 493.11 1175 493.11 1178 506.17C1178.09 507.208 1178.96 508.004 1180 508L1180 508C1180.93 507.994 1181.74 507.342 1181.94 506.43L1182 506 1184.92 493.17C1184.92 493.17 1184.92 493.17 1184.92 493.17L1184.92 509.94 1187.13 507.72C1188.69 506.157 1191.22 506.156 1192.79 507.717 1192.79 507.718 1192.79 507.719 1192.79 507.72L1195 509.85 1195 493.18C1195 493.18 1195 493.18 1195 493.18L1198 506.44C1198.21 507.37 1199.05 508.023 1200 508L1200 508C1200.94 507.999 1201.75 507.346 1201.95 506.43L1204.95 493.17C1204.95 493.17 1204.95 493.17 1204.95 493.17L1204.95 519.87 1204.95 519.87 1208.95 515.87 1208.95 509 1210.95 509 1210.95 513.91 1214.95 509.91 1214.95 493.18C1214.95 493.18 1214.95 493.18 1214.95 493.18L1218.1 506.72Z" fill="#7422DD" fill-opacity="0.75"/><path d="M1214.99 481C1214.99 483.761 1212.75 486 1209.99 486 1207.23 486 1204.99 483.761 1204.99 481 1204.99 478.239 1207.23 476 1209.99 476 1212.75 476 1214.99 478.239 1214.99 481Z" fill="#7422DD" fill-opacity="0.75"/><path d="M1194.96 481C1194.96 483.761 1192.72 486 1189.96 486 1187.2 486 1184.96 483.761 1184.96 481 1184.96 478.239 1187.2 476 1189.96 476 1192.72 476 1194.96 478.239 1194.96 481Z" fill="#7422DD" fill-opacity="0.75"/></g></g></g><g><g><g><path d="M131 625.4C129.3 621.3 124.6 619.4 120.5 621.1 117.1 622.5 115.1 626.1 115.6 629.6L102.7 635C101.3 632.6 98.8 630.8 96 630.3L96 616.4C99.4 615.5 102 612.4 102 608.7 102 604.3 98.4 600.7 94 600.7L94 600.7C89.6 600.7 86 604.3 86 608.7 86 612.4 88.6 615.5 92 616.4L92 630.2C89.1 630.7 86.7 632.5 85.3 634.9L72.4 629.5C72.9 626 71 622.4 67.5 621 63.4 619.3 58.7 621.2 57 625.3 55.3 629.4 57.2 634.1 61.3 635.8 64.7 637.2 68.6 636.1 70.7 633.2L83.9 638.6C83.8 639 83.8 639.5 83.8 639.9 83.8 642.1 84.5 644.2 85.8 645.9L75.4 656.4C72.3 654.6 68.3 655 65.7 657.6 62.6 660.7 62.6 665.8 65.7 668.9 68.8 672 73.9 672 77 668.9 79.6 666.3 80 662.3 78.2 659.2L88.8 648.6C90.3 649.5 92 650 93.8 650 93.9 650 93.9 650 94 650 94.1 650 94.1 650 94.2 650 96 650 97.7 649.5 99.2 648.6L109.8 659.2C108 662.3 108.4 666.3 111 669 114.1 672.1 119.2 672.1 122.3 669 125.4 665.9 125.4 660.8 122.3 657.7 119.7 655.1 115.7 654.7 112.6 656.5L102.2 646C103.5 644.3 104.2 642.3 104.2 640 104.2 639.6 104.2 639.1 104.1 638.7L117.3 633.3C119.4 636.1 123.3 637.3 126.7 635.9 130.7 634.1 132.7 629.5 131 625.4Z" fill="#7422DD" fill-opacity="0.75"/></g></g></g><g><g><g><path d="M450.8 651.6C446.4 648 440.8 645.6 435.2 644 431.2 642.8 426.8 642 422 642 417.6 642 413.2 642.8 408.8 644 403.2 645.6 397.6 648.4 393.2 651.6 391.2 653.2 390 655.6 390 658L390 674 454 674 454 658C454 655.6 452.8 653.2 450.8 651.6Z" fill="#7422DD" fill-opacity="0.75"/><path d="M406.4 608.4C407 608.4 407.5 608.2 407.8 607.8L407.8 607.8C411.5 604.2 416.5 602 422 602 433 602 442 611 442 622L442 626.6 430.5 630.4C430 630.2 429.5 630 429 630 427.3 630 426 631.3 426 633 426 634.7 427.3 636 429 636 430.2 636 431.3 635.3 431.8 634.2L447.7 628.9C448.5 628.6 449.1 627.9 449.1 627L449.1 618C449.1 616.9 448.2 616 447.1 616L445.3 616C442.6 605.7 433.2 598 422 598 415.5 598 409.6 600.6 405.2 604.8 404.7 605.2 404.4 605.7 404.4 606.4 404.4 607.5 405.3 608.4 406.4 608.4Z" fill="#7422DD" fill-opacity="0.75"/><path d="M437.9 623.7C438 623.1 438 622.6 438 622 438 613.2 430.8 606 422 606 413.2 606 406 613.2 406 622 406 630.8 413.2 638 422 638 422.3 638 422.7 638 423 637.9L423 633 423 633C423 632.1 423.2 631.2 423.6 630.3 424.3 628.9 425.5 627.8 427.1 627.3L437.9 623.7Z" fill="#7422DD" fill-opacity="0.75"/></g></g></g><g><g><g><path d="M1182 317 1176 317 1176 387 1245 387 1245 381 1182 381 1182 317Z" fill="#7422DD" fill-opacity="0.75"/><path d="M1245 375 1230 375 1230 317 1245 317Z" fill="#7422DD" fill-opacity="0.75"/><path d="M1224 375 1209 375 1209 337 1224 337Z" fill="#7422DD" fill-opacity="0.75"/><path d="M1203 375 1188 375 1188 355 1203 355Z" fill="#7422DD" fill-opacity="0.75"/><path d="M1220 330.74 1220 317 1206.26 317 1211.72 322.46 1187.59 346.59 1190.41 349.41 1214.54 325.29 1220 330.74Z" fill="#7422DD" fill-opacity="0.75"/></g></g></g><g><g><g><path d="M1202.19 98.19C1196.56 95.37 1188.11 88.19 1187.31 61.56 1187.02 51.77 1180.95 47.56 1175.87 45.76 1176.06 45.1104 1176.15 44.4367 1176.15 43.76 1176.15 39.8112 1172.95 36.61 1169 36.61 1165.05 36.61 1161.85 39.8112 1161.85 43.76 1161.85 44.4367 1161.94 45.1104 1162.13 45.76 1157.05 47.56 1150.98 51.76 1150.69 61.56 1149.89 88.16 1141.44 95.36 1135.81 98.18 1133.52 99.32 1134.67 102 1136 102L1161.5 102C1161.93 106.142 1165.63 109.153 1169.78 108.724 1173.33 108.357 1176.13 105.551 1176.5 102L1202 102C1203.33 102 1204.48 99.33 1202.19 98.19ZM1165.85 43.81C1165.85 42.0703 1167.26 40.66 1169 40.66 1170.74 40.66 1172.15 42.0703 1172.15 43.81 1172.15 44.1257 1172.1 44.439 1172 44.74 1171.01 44.5481 1170.01 44.4344 1169 44.4L1169 44.4C1167.99 44.4406 1166.99 44.5542 1166 44.74 1165.9 44.4394 1165.85 44.1258 1165.85 43.81Z" fill="#7422DD" fill-opacity="0.75"/></g></g></g><g><g><g><path d="M1024.53 61.26 1018.05 67.74 1011.56 61.26 1015.18 61.26C1013.96 58.8748 1011.5 57.3736 1008.82 57.37 1007.09 57.3719 1005.42 58.0089 1004.13 59.16L997.54 59.16C1000.48 52.9239 1007.91 50.2485 1014.15 53.1842 1017.47 54.7509 1019.94 57.7059 1020.89 61.26Z" fill="#7422DD" fill-opacity="0.75"/><path d="M993.15 67.74 999.64 61.26 1006.12 67.74 1002.47 67.74C1003.69 70.1236 1006.14 71.6249 1008.82 71.63 1010.55 71.6296 1012.23 70.9926 1013.52 69.84L1020.14 69.84C1017.19 76.0837 1009.75 78.7577 1003.5 75.8124 1000.18 74.2439 997.711 71.2913 996.76 67.74Z" fill="#7422DD" fill-opacity="0.75"/><path d="M1039.73 88C1048.37 87.7956 1055.2 80.6296 1055 71.9943 1054.82 64.3757 1049.17 57.9961 1041.63 56.89 1040.83 51.9997 1038.15 47.6183 1034.15 44.69 1030.01 41.7585 1024.85 40.6723 1019.88 41.69 1014.99 34.1456 1005.88 30.5028 997.14 32.6 988.621 34.7939 982.255 41.8931 981 50.6 975.325 50.7524 970.033 53.498 966.64 58.05 962.62 63.6339 961.888 70.9394 964.72 77.21 967.607 83.3908 973.65 87.4913 980.46 87.89ZM980.73 81.68C976.205 81.395 972.194 78.6709 970.26 74.57 968.384 70.3901 968.867 65.5285 971.53 61.8 974.252 58.1376 978.782 56.2887 983.29 57L986.84 57.59 986.84 53.67C986.875 46.5877 991.688 40.4223 998.55 38.67 1005.44 37.0098 1012.55 40.3287 1015.71 46.67L1016.92 49.08 1019.43 48.19C1023.19 46.8631 1027.35 47.445 1030.6 49.75 1033.83 52.1158 1035.74 55.8766 1035.75 59.88L1035.75 63 1039.83 63C1045.01 63.1946 1049.06 67.5534 1048.86 72.7357 1048.68 77.6835 1044.68 81.637 1039.73 81.77Z" fill="#7422DD" fill-opacity="0.75"/></g></g></g></g></svg>